<svg id="Layer_1" data-name="Layer 1" xmlns="http://www.w3.org/2000/svg" xmlns:xlink="http://www.w3.org/1999/xlink" viewBox="0 0 186 171"><defs><style>.cls-1{fill:url(#linear-gradient);}.cls-2{fill:none;stroke:#fff;stroke-linecap:round;opacity:0.3;}.cls-2,.cls-6,.cls-7{stroke-miterlimit:10;}.cls-2,.cls-6{stroke-width:2px;}.cls-3{fill:#ddd;}.cls-4{fill:url(#linear-gradient-2);}.cls-5{opacity:0.9;fill:url(#radial-gradient);}.cls-6,.cls-7{fill:#fff;}.cls-6{stroke:url(#linear-gradient-3);}.cls-7{stroke:#444545;stroke-width:3px;}.cls-8{fill:url(#linear-gradient-4);}.cls-9{fill:url(#linear-gradient-5);}.cls-10{fill:url(#linear-gradient-6);}.cls-11{fill:#643a8c;}.cls-12{fill:url(#linear-gradient-7);}</style><linearGradient id="linear-gradient" x1="24.53" y1="34.39" x2="62.74" y2="34.39" gradientTransform="translate(9.63 -12.9) rotate(-0.67)" gradientUnits="userSpaceOnUse"><stop offset="0" stop-color="#0570b7"/><stop offset="1" stop-color="#78479c"/></linearGradient><linearGradient id="linear-gradient-2" x1="-1120.38" y1="-1061.7" x2="-1077.22" y2="-1061.7" gradientTransform="translate(-1408.47 -399.3) rotate(152.44)" xlink:href="#linear-gradient"/><radialGradient id="radial-gradient" cx="88.66" cy="-52.87" r="93.47" gradientTransform="translate(-39.97 66.95) rotate(6.19)" gradientUnits="userSpaceOnUse"><stop offset="0" stop-color="#62ccec"/><stop offset="1" stop-color="#fff" stop-opacity="0"/></radialGradient><linearGradient id="linear-gradient-3" x1="8.71" y1="92.1" x2="87.64" y2="92.1" gradientUnits="userSpaceOnUse"><stop offset="0" stop-color="#78479c"/><stop offset="1" stop-color="#0570b7"/></linearGradient><linearGradient id="linear-gradient-4" x1="-470.56" y1="-221.06" x2="-470.67" y2="-221.14" gradientTransform="matrix(216.84, 0, 0, -276.25, 102097.85, -61002.18)" xlink:href="#linear-gradient-3"/><linearGradient id="linear-gradient-5" x1="-469.19" y1="-214.78" x2="-469.17" y2="-214.92" gradientTransform="matrix(-108.42, 187.79, 239.14, 138.07, 567.84, 117864.94)" xlink:href="#linear-gradient-3"/><linearGradient id="linear-gradient-6" x1="-476.76" y1="-216.93" x2="-476.88" y2="-217.01" gradientTransform="matrix(-108.42, -187.79, -239.14, 138.07, -103548.81, -59483.96)" xlink:href="#linear-gradient"/><linearGradient id="linear-gradient-7" x1="104.63" y1="-1392.99" x2="158.81" y2="-1392.99" gradientTransform="matrix(1, 0, 0, -1, 0, -1275.89)" gradientUnits="userSpaceOnUse"><stop offset="0" stop-color="#f99c1c"/><stop offset="1" stop-color="#fee123"/></linearGradient></defs><path class="cls-1" d="M49.33,6c10.27-2.8,20.55,2.29,23,11.37S67.46,32.78,57.18,35.58s-19.68,1-22.09-8.09S39.05,8.78,49.33,6Z"/><path class="cls-2" d="M52,8.77s10.45-2.28,16.88,9.52"/><path class="cls-3" d="M81.71,34.65c-9.44,10.8-28.54,17.9-42.66,15.86s-17.92-12.45-8.47-23.2S59.12,9.41,73.24,11.45,91.15,23.85,81.71,34.65Z"/><path class="cls-4" d="M74,35.76c-6.43,7.12-19.3,11.9-28.76,10.7s-11.94-8-5.51-15.09S59,19.46,68.49,20.67,80.41,28.62,74,35.76Z"/><path class="cls-5" d="M36.73,41.61,0,147.59l172,18.66,10.2-94L75.59,23.57C65.61,14.23,32.29,27.46,36.73,41.61Z"/><circle class="cls-6" cx="48.18" cy="92.1" r="38.47"/><circle class="cls-7" cx="128.72" cy="116.97" r="50.46"/><g id="Symbol"><path id="Path_5168" data-name="Path 5168" class="cls-8" d="M30.54,100.71a4.87,4.87,0,0,1,4.87-4.87l.46,0L41,87c-.2-.18-.39-.35-.57-.54a12.19,12.19,0,0,1,3.87-19.84,12.2,12.2,0,0,1,16,6.48,12.2,12.2,0,0,1,.39,8.43l1.24.4-5.15,3.46-2.13-5.82,1.74.56a7.68,7.68,0,0,0,.34-2.28,7.42,7.42,0,0,0-.6-3,7.6,7.6,0,0,0-1.64-2.44,7.61,7.61,0,0,0-5.41-2.24,7.59,7.59,0,0,0-3,.6,7.76,7.76,0,0,0-2.44,1.64A7.6,7.6,0,0,0,42,74.83a7.7,7.7,0,0,0,0,6,7.49,7.49,0,0,0,1.35,2.12h0l0,0,0,0h0l0,0h0l0,0h0l.16.16a7.56,7.56,0,0,0,2.43,1.64h0c.21.09.42.16.63.23h.47L39.67,98.33a5,5,0,0,1,.62,2.38,4.88,4.88,0,0,1-4.88,4.88h0A4.87,4.87,0,0,1,30.54,100.71Zm13.58-23A4.87,4.87,0,0,1,49,72.87h0a4.87,4.87,0,1,1-4.87,4.87Z"/><path id="Path_5169" data-name="Path 5169" class="cls-9" d="M51.44,73.56a4.87,4.87,0,0,1,1.78,6.66,3,3,0,0,1-.24.38l5.14,8.91c.25-.09.5-.16.75-.23a12.18,12.18,0,1,1-5.85,20l-1,.87L51.64,104,57.75,105l-1.36,1.23a7.66,7.66,0,1,0,4.07-12.69h0l-.07,0h-.13l-.22.05a7.64,7.64,0,0,0-2.64,1.29h0a5.27,5.27,0,0,0-.51.43h0l0,0h0l0,0h0l0,0h0l0,0h0l0,0h0l0,0h0l0,0h0l0,0,0,0L48.94,82.65a4.87,4.87,0,1,1,2.5-9.09ZM64.55,96.8a4.87,4.87,0,1,1-6.66,1.79A4.87,4.87,0,0,1,64.55,96.8Z"/><path id="Path_5170" data-name="Path 5170" class="cls-10" d="M64.63,105.25A4.87,4.87,0,0,1,58,103.47a3.17,3.17,0,0,1-.21-.41H47.48c0,.26-.11.51-.18.77A12.18,12.18,0,1,1,32.91,88.77l-.27-1.27,5.57,2.73-4,4.76-.38-1.79a7.66,7.66,0,1,0,8.95,9.86h0l0-.06v0h0v0h0v0h0l.06-.22a7.81,7.81,0,0,0,.2-2.93h0v0h0q0-.33-.12-.66h0v0h0v0h0v0h0v-.06h0v-.08h0v-.06h0v0h0v0h0v-.06H58a4.87,4.87,0,1,1,6.63,6.71Z"/><path id="Path_5171" data-name="Path 5171" class="cls-11" d="M48.66,87.9l4.87,8.36H43.79Z"/></g><path class="cls-12" d="M131.78,97.25h-7.4V112h7.4a12.26,12.26,0,1,1-12.37,12.3v-28c0-7.5-6.61-13.58-14.78-13.58v41.57c0,.86.05,1.7.13,2.54a27.09,27.09,0,1,0,27-29.63Z"/></svg>