<svg id="Layer_1" data-name="Layer 1" xmlns="http://www.w3.org/2000/svg" xmlns:xlink="http://www.w3.org/1999/xlink" viewBox="0 0 186 171"><defs><style>.cls-1{fill:url(#linear-gradient);}.cls-2{fill:none;stroke:#fff;stroke-linecap:round;opacity:0.3;}.cls-2,.cls-6,.cls-7{stroke-miterlimit:10;}.cls-2,.cls-6{stroke-width:2px;}.cls-3{fill:#ddd;}.cls-4{fill:url(#linear-gradient-2);}.cls-5{opacity:0.9;fill:url(#radial-gradient);}.cls-6,.cls-7{fill:#fff;}.cls-6{stroke:url(#linear-gradient-3);}.cls-7{stroke:#454ca0;stroke-width:3px;}.cls-8{fill:url(#linear-gradient-4);}.cls-9{fill:url(#linear-gradient-5);}.cls-10{fill:url(#linear-gradient-6);}.cls-11{fill:#643a8c;}.cls-12{fill:#454ca0;}</style><linearGradient id="linear-gradient" x1="17.83" y1="36.99" x2="56.04" y2="36.99" gradientTransform="translate(16.29 -15.57) rotate(-0.67)" gradientUnits="userSpaceOnUse"><stop offset="0" stop-color="#0570b7"/><stop offset="1" stop-color="#78479c"/></linearGradient><linearGradient id="linear-gradient-2" x1="-1282.37" y1="-2250.88" x2="-1239.21" y2="-2250.88" gradientTransform="translate(-2102.27 -1378.6) rotate(152.44)" xlink:href="#linear-gradient"/><radialGradient id="radial-gradient" cx="149.31" cy="-80.67" r="93.47" gradientTransform="translate(-103.26 88.06) rotate(6.19)" gradientUnits="userSpaceOnUse"><stop offset="0" stop-color="#62ccec"/><stop offset="1" stop-color="#fff" stop-opacity="0"/></radialGradient><linearGradient id="linear-gradient-3" x1="8.71" y1="92.1" x2="87.64" y2="92.1" gradientUnits="userSpaceOnUse"><stop offset="0" stop-color="#78479c"/><stop offset="1" stop-color="#0570b7"/></linearGradient><linearGradient id="linear-gradient-4" x1="-696.32" y1="-797.86" x2="-696.44" y2="-797.95" gradientTransform="matrix(216.84, 0, 0, -276.25, 151053.31, -220344.57)" xlink:href="#linear-gradient-3"/><linearGradient id="linear-gradient-5" x1="-694.24" y1="-787.75" x2="-694.21" y2="-787.89" gradientTransform="matrix(-108.42, 187.79, 239.14, 138.07, 113191.38, 239235.21)" xlink:href="#linear-gradient-3"/><linearGradient id="linear-gradient-6" x1="-706.39" y1="-791.32" x2="-706.51" y2="-791.4" gradientTransform="matrix(-108.42, -187.79, -239.14, 138.07, -265808.26, -23299.89)" xlink:href="#linear-gradient"/></defs><path class="cls-1" d="M49.33,6c10.27-2.8,20.55,2.29,23,11.37S67.46,32.78,57.18,35.58s-19.68,1-22.09-8.09S39.05,8.78,49.33,6Z"/><path class="cls-2" d="M52,8.77s10.45-2.28,16.88,9.52"/><path class="cls-3" d="M81.71,34.65c-9.44,10.8-28.54,17.9-42.66,15.86s-17.92-12.45-8.47-23.2S59.12,9.41,73.24,11.45,91.15,23.85,81.71,34.65Z"/><path class="cls-4" d="M74,35.76c-6.43,7.12-19.3,11.9-28.76,10.7s-11.94-8-5.51-15.09S59,19.46,68.49,20.67,80.41,28.62,74,35.76Z"/><path class="cls-5" d="M36.73,41.61,0,147.59l172,18.66,10.2-94L75.59,23.57C65.61,14.23,32.29,27.46,36.73,41.61Z"/><circle class="cls-6" cx="48.18" cy="92.1" r="38.47"/><circle class="cls-7" cx="128.72" cy="116.97" r="50.46"/><g id="Symbol"><path id="Path_5168" data-name="Path 5168" class="cls-8" d="M30.54,100.71a4.87,4.87,0,0,1,4.87-4.87l.46,0L41,87c-.2-.18-.39-.35-.57-.54a12.19,12.19,0,0,1,3.87-19.84,12.2,12.2,0,0,1,16,6.48,12.2,12.2,0,0,1,.39,8.43l1.24.4-5.15,3.46-2.13-5.82,1.74.56a7.68,7.68,0,0,0,.34-2.28,7.42,7.42,0,0,0-.6-3,7.6,7.6,0,0,0-1.64-2.44,7.61,7.61,0,0,0-5.41-2.24,7.59,7.59,0,0,0-3,.6,7.76,7.76,0,0,0-2.44,1.64A7.6,7.6,0,0,0,42,74.83a7.7,7.7,0,0,0,0,6,7.49,7.49,0,0,0,1.35,2.12h0l0,0,0,0h0l0,0h0l0,0h0l.16.16a7.56,7.56,0,0,0,2.43,1.64h0c.21.09.42.16.63.23h.47L39.67,98.33a5,5,0,0,1,.62,2.38,4.88,4.88,0,0,1-4.88,4.88h0A4.87,4.87,0,0,1,30.54,100.71Zm13.58-23A4.87,4.87,0,0,1,49,72.87h0a4.87,4.87,0,1,1-4.87,4.87Z"/><path id="Path_5169" data-name="Path 5169" class="cls-9" d="M51.44,73.56a4.87,4.87,0,0,1,1.78,6.66,3,3,0,0,1-.24.38l5.14,8.91c.25-.09.5-.16.75-.23a12.18,12.18,0,1,1-5.85,20l-1,.87L51.64,104,57.75,105l-1.36,1.23a7.66,7.66,0,1,0,4.07-12.69h0l-.07,0h-.13l-.22.05a7.64,7.64,0,0,0-2.64,1.29h0a5.27,5.27,0,0,0-.51.43h0l0,0h0l0,0h0l0,0h0l0,0h0l0,0h0l0,0h0l0,0h0l0,0,0,0L48.94,82.65a4.87,4.87,0,1,1,2.5-9.09ZM64.55,96.8a4.87,4.87,0,1,1-6.66,1.79A4.87,4.87,0,0,1,64.55,96.8Z"/><path id="Path_5170" data-name="Path 5170" class="cls-10" d="M64.63,105.25A4.87,4.87,0,0,1,58,103.47a3.17,3.17,0,0,1-.21-.41H47.48c0,.26-.11.51-.18.77A12.18,12.18,0,1,1,32.91,88.77l-.27-1.27,5.57,2.73-4,4.76-.38-1.79a7.66,7.66,0,1,0,8.95,9.86h0l0-.06v0h0v0h0v0h0l.06-.22a7.81,7.81,0,0,0,.2-2.93h0v0h0q0-.33-.12-.66h0v0h0v0h0v0h0v-.06h0v-.08h0v-.06h0v0h0v0h0v-.06H58a4.87,4.87,0,1,1,6.63,6.71Z"/><path id="Path_5171" data-name="Path 5171" class="cls-11" d="M48.66,87.9l4.87,8.36H43.79Z"/></g><path class="cls-12" d="M124.35,71.14c-10.19,1.86-14.64,3.47-20.45,7.3A47.15,47.15,0,0,0,89.07,94.29,45.72,45.72,0,0,0,89.14,139a45.48,45.48,0,1,0,48.69-67C134.21,71.28,126.4,70.77,124.35,71.14Zm21,12.41,1.68.26V90l-1-.25c-4.2-1.1-8.55-.81-10.48.69-1.28,1-1.83,2.41-2.23,6l-.22,1.89,5.77.11,5.77.11V104l-5.55.11-5.59.11v17.06c0,18.23,0,18.88-1.9,22.46-3.54,7-12.63,9.87-19.87,6.29a15,15,0,0,1-1.42-26c4.13-2.63,10.12-3.11,14.21-1.1a19.71,19.71,0,0,0,2.15.95,92.36,92.36,0,0,0,.26-9.86v-9.86h-4.42l.11-2.85.11-2.82,2.12-.11,2.08-.11v-2a14.11,14.11,0,0,1,1.93-7.52c2.38-3.87,5.52-5.41,11.25-5.44C142,83.34,144.37,83.45,145.32,83.55Z"/><path class="cls-12" d="M115.55,128.74a8.47,8.47,0,0,0-2.74,14.06c4.86,4.46,12.46,1.75,13.92-5,.62-2.88-1.46-7.08-4.28-8.51A10.15,10.15,0,0,0,115.55,128.74Z"/></svg>