<svg id="Layer_1" data-name="Layer 1" xmlns="http://www.w3.org/2000/svg" xmlns:xlink="http://www.w3.org/1999/xlink" viewBox="0 0 186 171"><defs><style>.cls-1{fill:url(#linear-gradient);}.cls-2{fill:none;stroke:#fff;stroke-linecap:round;opacity:0.3;}.cls-2,.cls-6,.cls-7{stroke-miterlimit:10;}.cls-2,.cls-6{stroke-width:2px;}.cls-3{fill:#ddd;}.cls-4{fill:url(#linear-gradient-2);}.cls-5{opacity:0.9;fill:url(#radial-gradient);}.cls-6,.cls-7{fill:#fff;}.cls-6{stroke:url(#linear-gradient-3);}.cls-7{stroke:#842983;stroke-width:3px;}.cls-8{fill:#499744;}.cls-9{fill:#8bc23f;}.cls-10{fill:#852983;}.cls-11{fill:url(#linear-gradient-4);}.cls-12{fill:url(#linear-gradient-5);}.cls-13{fill:url(#linear-gradient-6);}.cls-14{fill:#643a8c;}</style><linearGradient id="linear-gradient" x1="22.27" y1="34.42" x2="60.48" y2="34.42" gradientTransform="translate(11.88 -12.95) rotate(-0.67)" gradientUnits="userSpaceOnUse"><stop offset="0" stop-color="#0570b7"/><stop offset="1" stop-color="#78479c"/></linearGradient><linearGradient id="linear-gradient-2" x1="-1036.75" y1="-1428.84" x2="-993.58" y2="-1428.84" gradientTransform="translate(-1504.19 -763.48) rotate(152.44)" xlink:href="#linear-gradient"/><radialGradient id="radial-gradient" cx="109.54" cy="-54.34" r="93.47" gradientTransform="translate(-60.89 66.17) rotate(6.19)" gradientUnits="userSpaceOnUse"><stop offset="0" stop-color="#62ccec"/><stop offset="1" stop-color="#fff" stop-opacity="0"/></radialGradient><linearGradient id="linear-gradient-3" x1="8.71" y1="92.1" x2="87.64" y2="92.1" gradientUnits="userSpaceOnUse"><stop offset="0" stop-color="#78479c"/><stop offset="1" stop-color="#0570b7"/></linearGradient><linearGradient id="linear-gradient-4" x1="-473.75" y1="-415.59" x2="-473.87" y2="-415.67" gradientTransform="matrix(216.84, 0, 0, -276.25, 102788.97, -114740.46)" xlink:href="#linear-gradient-3"/><linearGradient id="linear-gradient-5" x1="-471.62" y1="-408.25" x2="-471.6" y2="-408.39" gradientTransform="matrix(-108.42, 187.79, 239.14, 138.07, 46569.67, 145033.88)" xlink:href="#linear-gradient-3"/><linearGradient id="linear-gradient-6" x1="-480.74" y1="-410.4" x2="-480.86" y2="-410.49" gradientTransform="matrix(-108.42, -187.79, -239.14, 138.07, -150251.37, -33517.63)" xlink:href="#linear-gradient"/></defs><path class="cls-1" d="M49.33,6c10.27-2.8,20.55,2.29,23,11.37S67.46,32.78,57.18,35.58s-19.68,1-22.09-8.09S39.05,8.78,49.33,6Z"/><path class="cls-2" d="M52,8.77s10.45-2.28,16.88,9.52"/><path class="cls-3" d="M81.71,34.65c-9.44,10.8-28.54,17.9-42.66,15.86s-17.92-12.45-8.47-23.2S59.12,9.41,73.24,11.45,91.15,23.85,81.71,34.65Z"/><path class="cls-4" d="M74,35.76c-6.43,7.12-19.3,11.9-28.76,10.7s-11.94-8-5.51-15.09S59,19.46,68.49,20.67,80.41,28.62,74,35.76Z"/><path class="cls-5" d="M36.73,41.61,0,147.59l172,18.66,10.2-94L75.59,23.57C65.61,14.23,32.29,27.46,36.73,41.61Z"/><circle class="cls-6" cx="48.18" cy="92.1" r="38.47"/><circle class="cls-7" cx="128.72" cy="116.97" r="50.46"/><path class="cls-8" d="M129.55,79.1S139.88,89,134.34,105s-12.72-11-12.72-11S121.4,85.73,129.55,79.1Z"/><path class="cls-9" d="M149.15,86.64s-14.31-.3-21.68,14.91,16.76,1.23,16.76,1.23S150.22,97.09,149.15,86.64Z"/><path class="cls-9" d="M107.05,86.64s14.3-.3,21.67,14.91S112,102.78,112,102.78,106,97.09,107.05,86.64Z"/><polygon class="cls-10" points="110.4 100.81 101.97 116.25 120.88 153.02 135.31 153.02 155.11 115.19 146.02 100.81 110.4 100.81"/><g id="Symbol"><path id="Path_5168" data-name="Path 5168" class="cls-11" d="M28,101.61a5,5,0,0,1,5-5,3.62,3.62,0,0,1,.47,0l5.27-9.14c-.2-.17-.39-.36-.58-.55a12.43,12.43,0,0,1-3.66-8.83,12.5,12.5,0,0,1,24-4.87,12.6,12.6,0,0,1,.4,8.65l1.27.41-5.28,3.54-2.19-6,1.79.58a8.09,8.09,0,0,0,.35-2.34A7.84,7.84,0,0,0,50,70.87,7.77,7.77,0,0,0,47,70.25a7.86,7.86,0,0,0-3.06.62,8.15,8.15,0,0,0-2.5,1.68,8,8,0,0,0-1.68,2.5,7.86,7.86,0,0,0,0,6.12,7.62,7.62,0,0,0,1.38,2.17h0l.05.06,0,0h0l0,0h0l0,0h0l.16.16a7.89,7.89,0,0,0,2.5,1.69h0l.65.23h.49L37.35,99.16a5.1,5.1,0,0,1,.63,2.45,5,5,0,0,1-5,5h0A5,5,0,0,1,28,101.61ZM41.91,78a5,5,0,0,1,5-5h0a5,5,0,1,1-5,5Z"/><path id="Path_5169" data-name="Path 5169" class="cls-12" d="M49.42,73.75a5,5,0,0,1,1.83,6.83A3.73,3.73,0,0,1,51,81l5.27,9.14c.26-.09.51-.16.77-.23a12.49,12.49,0,1,1-6,20.5l-1,.89-.42-6.34L55.89,106l-1.39,1.25a7.86,7.86,0,1,0,4.17-13h-.21l-.22.06a7.73,7.73,0,0,0-2.7,1.32h0l0,0h0c-.19.14-.36.29-.53.44h0l0,0h0l0,0h0l0,0h0v0h0v0h0v0h0l0,0h0l0,0h0l0,0h0v0l0,0L46.86,83.08a5,5,0,1,1,.13-10A5,5,0,0,1,49.42,73.75ZM62.87,97.59A5,5,0,1,1,56,99.42,5,5,0,0,1,62.87,97.59Z"/><path id="Path_5170" data-name="Path 5170" class="cls-13" d="M63,106.26a5,5,0,0,1-6.83-1.83,4,4,0,0,1-.21-.41H45.36c-.06.26-.12.52-.19.78A12.49,12.49,0,1,1,30.42,89.35l-.28-1.3,5.71,2.8-4.08,4.88-.39-1.84A7.86,7.86,0,1,0,40.56,104h0l0-.07v0h0v-.08h0l.06-.22a8,8,0,0,0,.21-3h0v0h0c0-.23-.07-.45-.12-.68h0v0h0v0h0v0h0v0h0v0h0v-.08h0v-.06h0v0h0v0h0v-.07h15.5a5,5,0,1,1,6.8,6.89Z"/><path id="Path_5171" data-name="Path 5171" class="cls-14" d="M46.57,88.46l5,8.57h-10Z"/></g></svg>